<svg xmlns="http://www.w3.org/2000/svg" viewBox="0 0 1440 320">
  <path fill="#2380c0" fill-opacity="1" d="M0,32L10,64C20,96,40,160,60,176C80,192,100,160,120,133.3C140,107,160,85,180,112C200,139,220,213,240,213.3C260,213,280,139,300,133.3C320,128,340,192,360,213.3C380,235,400,213,420,192C440,171,460,149,480,144C500,139,520,149,540,133.3C560,117,580,75,600,69.3C620,64,640,96,660,101.3C680,107,700,85,720,96C740,107,760,149,780,165.3C800,181,820,171,840,149.3C860,128,880,96,900,112C920,128,940,192,960,181.3C980,171,1000,85,1020,58.7C1040,32,1060,64,1080,96C1100,128,1120,160,1140,165.3C1160,171,1180,149,1200,122.7C1220,96,1240,64,1260,53.3C1280,43,1300,53,1320,96C1340,139,1360,213,1380,234.7C1400,256,1420,224,1430,208L1440,192L1440,320L1430,320C1420,320,1400,320,1380,320C1360,320,1340,320,1320,320C1300,320,1280,320,1260,320C1240,320,1220,320,1200,320C1180,320,1160,320,1140,320C1120,320,1100,320,1080,320C1060,320,1040,320,1020,320C1000,320,980,320,960,320C940,320,920,320,900,320C880,320,860,320,840,320C820,320,800,320,780,320C760,320,740,320,720,320C700,320,680,320,660,320C640,320,620,320,600,320C580,320,560,320,540,320C520,320,500,320,480,320C460,320,440,320,420,320C400,320,380,320,360,320C340,320,320,320,300,320C280,320,260,320,240,320C220,320,200,320,180,320C160,320,140,320,120,320C100,320,80,320,60,320C40,320,20,320,10,320L0,320Z"></path>
</svg>